<svg width="593" height="620" viewBox="0 0 593 620" fill="none" xmlns="http://www.w3.org/2000/svg">
<path d="M514.877 471.862L94.9161 459.833C85.4736 459.571 76.4506 455.877 69.5376 449.442C62.6245 443.007 58.2956 434.274 57.3619 424.878L37.0907 224.669C36.551 219.31 37.1307 213.897 38.7931 208.774C40.4554 203.651 43.1642 198.928 46.7478 194.906C50.3314 190.883 54.7117 187.649 59.6112 185.407C64.5107 183.165 69.8225 181.965 75.2102 181.883L542.659 175.424C548.218 175.349 553.728 176.465 558.82 178.696C563.911 180.928 568.465 184.223 572.176 188.361C575.887 192.499 578.669 197.383 580.334 202.685C581.998 207.987 582.508 213.584 581.829 219.099L554.612 437.794C553.413 447.395 548.678 456.205 541.331 462.504C533.984 468.803 524.552 472.139 514.877 471.862Z" fill="#EAF9F3"/>
<mask id="mask0_16_2" style="mask-type:luminance" maskUnits="userSpaceOnUse" x="36" y="175" width="547" height="297">
<path d="M514.877 471.862L94.9161 459.833C85.4736 459.571 76.4506 455.877 69.5376 449.442C62.6245 443.007 58.2956 434.274 57.3619 424.878L37.0907 224.669C36.551 219.31 37.1307 213.897 38.7931 208.774C40.4554 203.651 43.1642 198.928 46.7478 194.906C50.3314 190.883 54.7117 187.649 59.6112 185.407C64.5107 183.165 69.8225 181.965 75.2102 181.883L542.659 175.424C548.218 175.349 553.728 176.465 558.82 178.696C563.911 180.928 568.465 184.223 572.176 188.361C575.887 192.499 578.669 197.383 580.334 202.685C581.998 207.987 582.508 213.584 581.829 219.099L554.612 437.794C553.413 447.395 548.678 456.205 541.331 462.504C533.984 468.803 524.552 472.139 514.877 471.862Z" fill="white"/>
</mask>
<g mask="url(#mask0_16_2)">
<path d="M172.124 508.19H-163.441C-166.654 508.19 -169.735 506.914 -172.007 504.643C-174.279 502.372 -175.555 499.292 -175.555 496.081V305.883C-175.555 302.671 -174.279 299.591 -172.007 297.32C-169.735 295.049 -166.654 293.773 -163.441 293.773H172.124C175.337 293.773 178.419 295.049 180.69 297.32C182.962 299.591 184.239 302.671 184.239 305.883V496.081C184.239 499.292 182.962 502.372 180.69 504.643C178.419 506.914 175.337 508.19 172.124 508.19Z" stroke="#B8D8C7" stroke-width="1.8" stroke-linecap="round" stroke-linejoin="round"/>
<path d="M615.587 495.435H277.115C273.902 495.435 270.82 494.159 268.548 491.888C266.277 489.617 265 486.537 265 483.325V205.375C265 202.163 266.277 199.083 268.548 196.812C270.82 194.541 273.902 193.266 277.115 193.266H615.587C618.8 193.266 621.881 194.541 624.153 196.812C626.425 199.083 627.701 202.163 627.701 205.375V483.325C627.701 486.537 626.425 489.617 624.153 491.888C621.881 494.159 618.8 495.435 615.587 495.435Z" stroke="#B8D8C7" stroke-width="1.8" stroke-linecap="round" stroke-linejoin="round"/>
<path d="M91.6857 236.94H19.0809V229.755H91.6857C91.8769 229.754 92.0664 229.791 92.2432 229.864C92.4201 229.936 92.5808 230.043 92.716 230.178C92.8512 230.314 92.9582 230.474 93.0309 230.651C93.1036 230.828 93.1404 231.017 93.1394 231.208V235.406C93.1481 235.603 93.117 235.8 93.048 235.985C92.9791 236.169 92.8736 236.338 92.738 236.481C92.6023 236.624 92.4393 236.739 92.2585 236.818C92.0777 236.896 91.8829 236.938 91.6857 236.94Z" stroke="#B8D8C7" stroke-width="1.8" stroke-linecap="round" stroke-linejoin="round"/>
<path d="M78.5215 229.755H62.1269C61.2727 229.757 60.4474 229.446 59.8073 228.881C59.1672 228.316 58.7569 227.535 58.6541 226.687L57.3619 215.062C57.3086 214.575 57.3587 214.081 57.5089 213.614C57.6591 213.147 57.906 212.716 58.2336 212.351C58.5612 211.985 58.9621 211.693 59.4102 211.492C59.8584 211.292 60.3437 211.188 60.8347 211.187H79.8137C80.3043 211.189 80.789 211.294 81.2365 211.495C81.6841 211.696 82.0845 211.988 82.4118 212.353C82.7391 212.719 82.9861 213.148 83.1368 213.615C83.2874 214.082 83.3384 214.575 83.2864 215.062L81.9943 226.687C81.8914 227.535 81.4811 228.316 80.8411 228.881C80.201 229.446 79.3757 229.757 78.5215 229.755Z" stroke="#B8D8C7" stroke-width="1.8" stroke-linecap="round" stroke-linejoin="round"/>
<path d="M68.3455 211.268C68.3455 211.268 61.8846 210.622 60.5924 201.904C60.5924 201.904 66.4072 203.599 68.2648 207.716C68.2648 207.716 69.0724 198.513 73.4335 197.625C73.4335 197.625 75.3718 204.487 72.3028 207.878C72.3028 207.878 74.6449 204.003 80.6213 204.083C80.0566 205.783 79.0843 207.32 77.7892 208.558C76.4941 209.796 74.9155 210.699 73.1912 211.187" fill="#B8D8C7"/>
<path d="M511.162 277.95H494.767C493.913 277.953 493.088 277.642 492.448 277.076C491.808 276.511 491.397 275.73 491.295 274.883L490.002 263.258C489.949 262.77 489.999 262.276 490.149 261.809C490.3 261.342 490.546 260.911 490.874 260.546C491.202 260.18 491.603 259.888 492.051 259.688C492.499 259.487 492.984 259.383 493.475 259.383H512.454C512.945 259.385 513.429 259.489 513.877 259.69C514.325 259.891 514.725 260.183 515.052 260.549C515.38 260.914 515.627 261.344 515.777 261.81C515.928 262.277 515.979 262.77 515.927 263.258L514.635 274.883C514.517 275.724 514.103 276.496 513.466 277.058C512.829 277.621 512.012 277.937 511.162 277.95Z" stroke="#B8D8C7" stroke-width="1.8" stroke-linecap="round" stroke-linejoin="round"/>
<path d="M501.067 259.383C501.067 259.383 494.606 258.737 493.314 250.018C493.314 250.018 499.129 251.713 500.986 255.831C500.986 255.831 501.794 246.628 506.155 245.74C506.155 245.74 508.093 252.601 505.024 255.992C505.024 255.992 507.366 252.117 513.343 252.198C512.778 253.898 511.806 255.434 510.511 256.673C509.215 257.911 507.637 258.814 505.913 259.302" fill="#B8D8C7"/>
<path d="M169.54 333.896H96.6929C95.7952 333.889 94.9361 333.53 94.3014 332.896C93.6666 332.261 93.3072 331.402 93.3009 330.505V308.385C93.3072 307.488 93.6666 306.629 94.3014 305.995C94.9361 305.36 95.7952 305.001 96.6929 304.995H169.54C170.438 305.001 171.297 305.36 171.931 305.995C172.566 306.629 172.926 307.488 172.932 308.385V330.505C172.943 330.953 172.863 331.399 172.696 331.816C172.53 332.232 172.28 332.61 171.963 332.927C171.646 333.244 171.268 333.494 170.851 333.66C170.434 333.827 169.988 333.907 169.54 333.896Z" stroke="#B8D8C7" stroke-width="1.8" stroke-linecap="round" stroke-linejoin="round"/>
<path d="M141.516 312.825H124.717C124.399 312.817 124.095 312.687 123.87 312.462C123.644 312.236 123.514 311.933 123.506 311.615C123.514 311.296 123.644 310.993 123.87 310.767C124.095 310.542 124.399 310.412 124.717 310.404H141.516C141.834 310.412 142.138 310.542 142.363 310.767C142.589 310.993 142.719 311.296 142.727 311.615C142.719 311.933 142.589 312.236 142.363 312.462C142.138 312.687 141.834 312.817 141.516 312.825Z" fill="#B8D8C7"/>
<path d="M169.54 370.87H96.6929C95.7952 370.863 94.9361 370.504 94.3014 369.87C93.6666 369.235 93.3072 368.376 93.3009 367.479V345.359C93.3072 344.462 93.6666 343.603 94.3014 342.969C94.9361 342.334 95.7952 341.975 96.6929 341.969H169.54C170.438 341.975 171.297 342.334 171.931 342.969C172.566 343.603 172.926 344.462 172.932 345.359V367.479C172.943 367.927 172.863 368.373 172.696 368.79C172.53 369.206 172.28 369.584 171.963 369.901C171.646 370.218 171.268 370.468 170.851 370.634C170.434 370.801 169.988 370.881 169.54 370.87Z" stroke="#B8D8C7" stroke-width="1.8" stroke-linecap="round" stroke-linejoin="round"/>
<path d="M141.516 349.799H124.717C124.399 349.791 124.095 349.661 123.87 349.436C123.644 349.21 123.514 348.907 123.506 348.589C123.514 348.27 123.644 347.967 123.87 347.741C124.095 347.516 124.399 347.386 124.717 347.378H141.516C141.834 347.386 142.138 347.516 142.363 347.741C142.589 347.967 142.719 348.27 142.727 348.589C142.719 348.907 142.589 349.21 142.363 349.436C142.138 349.661 141.834 349.791 141.516 349.799Z" fill="#B8D8C7"/>
<path d="M543.628 397.026H470.781C469.884 397.02 469.024 396.66 468.39 396.026C467.755 395.391 467.396 394.533 467.389 393.635V371.516C467.396 370.618 467.755 369.76 468.39 369.125C469.024 368.491 469.884 368.131 470.781 368.125H543.628C544.526 368.131 545.385 368.491 546.02 369.125C546.654 369.76 547.014 370.618 547.02 371.516V393.635C547.031 394.084 546.951 394.53 546.785 394.946C546.618 395.362 546.369 395.74 546.051 396.058C545.734 396.375 545.356 396.624 544.939 396.79C544.523 396.957 544.077 397.037 543.628 397.026Z" stroke="#B8D8C7" stroke-width="1.8" stroke-linecap="round" stroke-linejoin="round"/>
<path d="M515.604 375.875H498.805C498.487 375.867 498.183 375.737 497.958 375.511C497.732 375.286 497.602 374.983 497.594 374.664C497.602 374.345 497.732 374.042 497.958 373.817C498.183 373.591 498.487 373.461 498.805 373.453H515.604C515.923 373.461 516.226 373.591 516.451 373.817C516.677 374.042 516.807 374.345 516.815 374.664C516.819 374.824 516.79 374.983 516.73 375.131C516.67 375.28 516.581 375.415 516.468 375.528C516.355 375.641 516.22 375.73 516.071 375.789C515.923 375.849 515.764 375.878 515.604 375.875Z" fill="#B8D8C7"/>
<path d="M450.106 397.026H377.259C376.361 397.02 375.502 396.66 374.868 396.026C374.233 395.391 373.873 394.533 373.867 393.635V371.516C373.873 370.618 374.233 369.76 374.868 369.125C375.502 368.491 376.361 368.131 377.259 368.125H450.106C451.004 368.131 451.863 368.491 452.498 369.125C453.132 369.76 453.492 370.618 453.498 371.516V393.635C453.492 394.533 453.132 395.391 452.498 396.026C451.863 396.66 451.004 397.02 450.106 397.026Z" stroke="#B8D8C7" stroke-width="1.8" stroke-linecap="round" stroke-linejoin="round"/>
<path d="M422.082 375.875H405.283C404.965 375.867 404.661 375.737 404.436 375.511C404.21 375.286 404.08 374.983 404.072 374.664C404.08 374.345 404.21 374.042 404.436 373.817C404.661 373.591 404.965 373.461 405.283 373.453H422.082C422.401 373.461 422.704 373.591 422.929 373.817C423.155 374.042 423.285 374.345 423.293 374.664C423.297 374.824 423.267 374.983 423.208 375.131C423.148 375.28 423.059 375.415 422.946 375.528C422.833 375.641 422.698 375.73 422.549 375.789C422.401 375.849 422.242 375.878 422.082 375.875Z" fill="#B8D8C7"/>
<path d="M355.938 397.026H283.091C282.193 397.02 281.334 396.66 280.699 396.026C280.065 395.391 279.705 394.533 279.699 393.635V371.516C279.705 370.618 280.065 369.76 280.699 369.125C281.334 368.491 282.193 368.131 283.091 368.125H355.938C356.836 368.131 357.695 368.491 358.33 369.125C358.964 369.76 359.324 370.618 359.33 371.516V393.635C359.341 394.084 359.261 394.53 359.094 394.946C358.928 395.362 358.678 395.74 358.361 396.058C358.044 396.375 357.666 396.624 357.249 396.79C356.833 396.957 356.386 397.037 355.938 397.026Z" stroke="#B8D8C7" stroke-width="1.8" stroke-linecap="round" stroke-linejoin="round"/>
<path d="M327.914 375.875H311.115C310.797 375.867 310.493 375.737 310.268 375.511C310.042 375.286 309.912 374.983 309.904 374.664C309.912 374.345 310.042 374.042 310.268 373.817C310.493 373.591 310.797 373.461 311.115 373.453H327.914C328.232 373.461 328.536 373.591 328.761 373.817C328.987 374.042 329.117 374.345 329.125 374.664C329.128 374.824 329.099 374.983 329.04 375.131C328.98 375.28 328.891 375.415 328.778 375.528C328.664 375.641 328.53 375.73 328.381 375.789C328.233 375.849 328.074 375.878 327.914 375.875Z" fill="#B8D8C7"/>
<path d="M76.664 333.896H3.8169C2.91925 333.889 2.06016 333.53 1.42541 332.896C0.79066 332.261 0.431256 331.402 0.424911 330.505V308.385C0.431256 307.488 0.79066 306.629 1.42541 305.995C2.06016 305.36 2.91925 305.001 3.8169 304.995H76.664C77.5616 305.001 78.4207 305.36 79.0555 305.995C79.6902 306.629 80.0496 307.488 80.056 308.385V330.505C80.067 330.953 79.9869 331.399 79.8203 331.816C79.6538 332.232 79.4044 332.61 79.0871 332.927C78.7699 333.244 78.3916 333.494 77.975 333.66C77.5585 333.827 77.1124 333.907 76.664 333.896Z" stroke="#B8D8C7" stroke-width="1.8" stroke-linecap="round" stroke-linejoin="round"/>
<path d="M48.6396 312.825H31.8412C31.5225 312.817 31.2191 312.687 30.9936 312.462C30.7682 312.236 30.638 311.933 30.6298 311.615C30.638 311.296 30.7682 310.993 30.9936 310.767C31.2191 310.542 31.5225 310.412 31.8412 310.404H48.6396C48.9584 310.412 49.2618 310.542 49.4872 310.767C49.7126 310.993 49.8429 311.296 49.8511 311.615C49.8544 311.774 49.8253 311.933 49.7656 312.082C49.7059 312.23 49.6168 312.365 49.5036 312.478C49.3904 312.591 49.2556 312.68 49.1071 312.74C48.9586 312.8 48.7996 312.829 48.6396 312.825Z" fill="#B8D8C7"/>
<path d="M76.664 370.87H3.8169C2.91925 370.863 2.06016 370.504 1.42541 369.87C0.79066 369.235 0.431256 368.376 0.424911 367.479V345.359C0.431256 344.462 0.79066 343.603 1.42541 342.969C2.06016 342.334 2.91925 341.975 3.8169 341.969H76.664C77.5616 341.975 78.4207 342.334 79.0555 342.969C79.6902 343.603 80.0496 344.462 80.056 345.359V367.479C80.067 367.927 79.9869 368.373 79.8203 368.79C79.6538 369.206 79.4044 369.584 79.0871 369.901C78.7699 370.218 78.3916 370.468 77.975 370.634C77.5585 370.801 77.1124 370.881 76.664 370.87Z" stroke="#B8D8C7" stroke-width="1.8" stroke-linecap="round" stroke-linejoin="round"/>
<path d="M48.6396 349.799H31.8412C31.5225 349.791 31.2191 349.661 30.9936 349.436C30.7682 349.21 30.638 348.907 30.6298 348.589C30.638 348.27 30.7682 347.967 30.9936 347.741C31.2191 347.516 31.5225 347.386 31.8412 347.378H48.6396C48.9584 347.386 49.2618 347.516 49.4872 347.741C49.7126 347.967 49.8429 348.27 49.8511 348.589C49.8544 348.748 49.8253 348.907 49.7656 349.056C49.7059 349.204 49.6168 349.339 49.5036 349.452C49.3904 349.565 49.2556 349.654 49.1071 349.714C48.9586 349.774 48.7996 349.803 48.6396 349.799Z" fill="#B8D8C7"/>
<path d="M649.668 277.95H282.203C281.221 277.94 280.282 277.545 279.587 276.851C278.893 276.157 278.498 275.219 278.488 274.237V209.896C278.498 208.914 278.893 207.976 279.587 207.282C280.282 206.587 281.221 206.193 282.203 206.182H649.668C650.65 206.193 651.589 206.587 652.284 207.282C652.978 207.976 653.373 208.914 653.383 209.896V274.237C653.384 274.725 653.289 275.208 653.103 275.659C652.916 276.11 652.643 276.52 652.298 276.865C651.952 277.21 651.543 277.484 651.091 277.67C650.64 277.856 650.157 277.952 649.668 277.95Z" stroke="#B8D8C7" stroke-width="1.8" stroke-linecap="round" stroke-linejoin="round"/>
<path d="M649.668 357.792H282.203C281.221 357.781 280.282 357.387 279.587 356.692C278.893 355.998 278.498 355.06 278.488 354.078V289.737C278.498 288.755 278.893 287.817 279.587 287.123C280.282 286.428 281.221 286.034 282.203 286.023H649.668C650.65 286.034 651.589 286.428 652.284 287.123C652.978 287.817 653.373 288.755 653.383 289.737V354.078C653.384 354.566 653.289 355.049 653.103 355.5C652.916 355.951 652.643 356.361 652.298 356.706C651.952 357.051 651.543 357.325 651.091 357.511C650.64 357.697 650.157 357.793 649.668 357.792Z" stroke="#B8D8C7" stroke-width="1.8" stroke-linecap="round" stroke-linejoin="round"/>
<path d="M311.277 237.263H303.281V277.87H311.277V237.263Z" stroke="#B8D8C7" stroke-width="1.8" stroke-linecap="round" stroke-linejoin="round"/>
<path d="M319.514 248.404H311.196V277.95H319.514V248.404Z" stroke="#B8D8C7" stroke-width="1.8" stroke-linecap="round" stroke-linejoin="round"/>
<path d="M552.189 317.104H544.194V357.711H552.189V317.104Z" stroke="#B8D8C7" stroke-width="1.8" stroke-linecap="round" stroke-linejoin="round"/>
<path d="M560.507 328.164H552.189V357.711H560.507V328.164Z" stroke="#B8D8C7" stroke-width="1.8" stroke-linecap="round" stroke-linejoin="round"/>
<path d="M535.956 317.104H527.96V357.711H535.956V317.104Z" stroke="#B8D8C7" stroke-width="1.8" stroke-linecap="round" stroke-linejoin="round"/>
<path d="M520.427 316.1L508.198 354.823L515.822 357.229L528.051 318.506L520.427 316.1Z" stroke="#B8D8C7" stroke-width="1.8" stroke-linecap="round" stroke-linejoin="round"/>
<path d="M544.274 328.164H535.956V357.711H544.274V328.164Z" stroke="#B8D8C7" stroke-width="1.8" stroke-linecap="round" stroke-linejoin="round"/>
<path d="M444.372 237.263H436.377V277.87H444.372V237.263Z" stroke="#B8D8C7" stroke-width="1.8" stroke-linecap="round" stroke-linejoin="round"/>
<path d="M452.691 248.404H444.372V277.95H452.691V248.404Z" stroke="#B8D8C7" stroke-width="1.8" stroke-linecap="round" stroke-linejoin="round"/>
<path d="M365.387 237.263H357.392V277.87H365.387V237.263Z" stroke="#B8D8C7" stroke-width="1.8" stroke-linecap="round" stroke-linejoin="round"/>
<path d="M349.862 236.335L337.633 275.058L345.257 277.464L357.486 238.741L349.862 236.335Z" stroke="#B8D8C7" stroke-width="1.8" stroke-linecap="round" stroke-linejoin="round"/>
<path d="M373.706 248.404H365.387V277.95H373.706V248.404Z" stroke="#B8D8C7" stroke-width="1.8" stroke-linecap="round" stroke-linejoin="round"/>
<path d="M552.108 242.591L552.997 230.562C553.014 230.374 552.991 230.184 552.929 230.006C552.867 229.827 552.768 229.663 552.638 229.526C552.509 229.389 552.351 229.28 552.176 229.208C552.001 229.137 551.813 229.103 551.624 229.109H544.678C544.491 229.11 544.306 229.149 544.135 229.223C543.963 229.298 543.809 229.406 543.68 229.542C543.552 229.678 543.452 229.838 543.388 230.014C543.323 230.189 543.295 230.376 543.305 230.562L544.193 242.591C544.193 242.591 536.925 247.273 537.006 251.148C537.086 254.135 538.863 268.424 539.671 274.721C539.774 275.569 540.184 276.349 540.824 276.915C541.464 277.48 542.289 277.791 543.144 277.789H553.158C554.012 277.791 554.838 277.48 555.478 276.915C556.118 276.349 556.528 275.569 556.631 274.721C557.438 268.424 559.215 254.135 559.296 251.148C559.377 247.273 552.108 242.591 552.108 242.591Z" fill="#B8D8C7"/>
<path d="M471.185 322.594L472.073 310.565C472.091 310.377 472.068 310.187 472.006 310.008C471.944 309.83 471.845 309.666 471.715 309.529C471.585 309.391 471.428 309.283 471.253 309.211C471.078 309.139 470.889 309.105 470.7 309.112H463.755C463.568 309.113 463.383 309.152 463.212 309.226C463.04 309.3 462.885 309.409 462.757 309.545C462.629 309.68 462.529 309.841 462.465 310.016C462.4 310.192 462.372 310.378 462.382 310.565L463.27 322.594C463.27 322.594 456.002 327.276 456.082 331.151C456.163 334.138 457.94 348.427 458.748 354.724C458.85 355.572 459.261 356.352 459.901 356.917C460.541 357.483 461.366 357.794 462.22 357.792H472.235C473.089 357.794 473.914 357.483 474.554 356.917C475.194 356.352 475.605 355.572 475.708 354.724C476.515 348.427 478.292 334.138 478.373 331.151C478.453 327.276 471.185 322.594 471.185 322.594Z" fill="#B8D8C7"/>
<path d="M35.8793 442.073H807.8" stroke="#B8D8C7" stroke-width="1.8" stroke-linecap="round" stroke-linejoin="round"/>
<path d="M123.183 293.773H62.2076C60.9023 293.769 59.6518 293.249 58.7288 292.326C57.8058 291.404 57.2854 290.154 57.2811 288.849V276.094C57.2854 274.789 57.8058 273.539 58.7288 272.616C59.6518 271.694 60.9023 271.173 62.2076 271.169H123.183C124.488 271.173 125.739 271.694 126.662 272.616C127.585 273.539 128.105 274.789 128.109 276.094V288.849C128.113 289.497 127.989 290.139 127.743 290.738C127.497 291.338 127.134 291.882 126.676 292.341C126.218 292.799 125.673 293.161 125.073 293.407C124.473 293.653 123.831 293.778 123.183 293.773Z" stroke="#B8D8C7" stroke-width="1.8" stroke-linecap="round" stroke-linejoin="round"/>
<path d="M63.3383 274.883H64.0651" stroke="#B8D8C7" stroke-width="1.8" stroke-linecap="round" stroke-linejoin="round"/>
<path d="M116.641 287.638H68.8301C68.8301 286.567 69.2555 285.541 70.0128 284.784C70.7701 284.027 71.7972 283.602 72.8682 283.602H112.522C113.059 283.591 113.593 283.687 114.092 283.885C114.592 284.083 115.046 284.379 115.43 284.755C115.813 285.131 116.118 285.579 116.326 286.074C116.534 286.569 116.641 287.101 116.641 287.638Z" stroke="#B8D8C7" stroke-width="1.8" stroke-linecap="round" stroke-linejoin="round"/>
<path d="M109.938 253.893H75.5333V271.25H109.938V253.893Z" stroke="#B8D8C7" stroke-width="1.8" stroke-linecap="round" stroke-linejoin="round"/>
</g>
<path d="M370.394 329.779L338.574 317.669C338.138 317.498 337.765 317.197 337.505 316.807C337.245 316.418 337.111 315.958 337.121 315.49L388.162 308.062C388.162 308.062 394.461 318.638 393.815 318.88C393.169 319.122 370.394 329.779 370.394 329.779Z" fill="#22272E"/>
<path d="M337.121 315.57L371.202 327.518L390.746 318.073C390.746 318.073 386.466 308.466 385.981 308.547C385.497 308.628 337.121 315.57 337.121 315.57Z" fill="#63737A"/>
<path d="M369.748 327.76L380.893 280.453C381.172 279.34 381.801 278.347 382.688 277.62C383.576 276.893 384.674 276.471 385.82 276.417L436.942 275.044C437.25 275.038 437.555 275.104 437.832 275.236C438.11 275.369 438.353 275.564 438.541 275.808C438.73 276.051 438.859 276.335 438.917 276.637C438.976 276.939 438.964 277.251 438.88 277.547L428.462 313.875C428.205 314.761 427.719 315.563 427.052 316.201C426.386 316.839 425.563 317.29 424.666 317.508L372.171 330.102C371.842 330.201 371.493 330.21 371.159 330.129C370.826 330.048 370.52 329.88 370.273 329.641C370.026 329.403 369.847 329.103 369.755 328.772C369.663 328.441 369.66 328.092 369.748 327.76Z" fill="#22272E"/>
<path d="M412.315 299.534C413.064 296.965 412.353 294.499 410.725 294.025C409.098 293.55 407.172 295.248 406.422 297.816C405.673 300.384 406.385 302.85 408.012 303.325C409.639 303.799 411.565 302.102 412.315 299.534Z" fill="#63737A"/>
<path d="M450.995 251.148L334.052 244.609C333.347 244.57 332.657 244.389 332.024 244.077C331.391 243.765 330.827 243.328 330.367 242.792C329.907 242.257 329.56 241.634 329.346 240.962C329.133 240.289 329.058 239.58 329.125 238.878L339.14 136.755C339.309 135.129 340.037 133.613 341.201 132.464C342.365 131.316 343.891 130.607 345.52 130.458L468.116 121.094C468.892 121.029 469.673 121.14 470.401 121.419C471.129 121.697 471.785 122.135 472.32 122.701C472.855 123.267 473.256 123.946 473.493 124.688C473.73 125.43 473.797 126.216 473.689 126.987L458.344 245.094C458.094 246.837 457.202 248.424 455.843 249.545C454.483 250.665 452.754 251.237 450.995 251.148Z" fill="#63737A"/>
<path d="M447.764 251.148L330.256 244.609C329.548 244.577 328.855 244.4 328.219 244.09C327.582 243.78 327.016 243.343 326.555 242.807C326.093 242.27 325.746 241.644 325.536 240.969C325.325 240.293 325.255 239.581 325.329 238.878L335.344 136.271C335.504 134.628 336.24 133.094 337.422 131.942C338.605 130.789 340.157 130.092 341.805 129.974L464.966 120.529C465.745 120.47 466.527 120.584 467.256 120.862C467.986 121.141 468.644 121.578 469.184 122.141C469.725 122.705 470.134 123.381 470.382 124.121C470.63 124.861 470.711 125.647 470.62 126.422L455.194 245.094C454.901 246.832 453.986 248.405 452.619 249.519C451.252 250.633 449.527 251.212 447.764 251.148Z" fill="#22272E"/>
<path d="M445.583 200.531L443.887 213.852L427.251 213.529L428.785 200.451L445.583 200.531Z" fill="white"/>
<path d="M412.148 200.37L410.614 213.206L393.654 212.964L395.027 200.37H412.148Z" fill="#F4C2C9"/>
<path d="M427.251 213.529L425.635 226.526L409.079 225.961L410.614 213.206L427.251 213.529Z" fill="#B0D7C0"/>
<path d="M360.461 142.648L346.65 143.456C346.415 143.454 346.191 143.359 346.025 143.193C345.858 143.027 345.764 142.803 345.762 142.568L346.004 140.227C346.054 139.902 346.206 139.601 346.438 139.369C346.671 139.137 346.972 138.984 347.296 138.935L361.187 138.047C361.307 138.034 361.428 138.048 361.542 138.089C361.656 138.129 361.759 138.194 361.844 138.279C361.929 138.364 361.994 138.467 362.034 138.581C362.074 138.694 362.089 138.815 362.076 138.935L361.834 141.357C361.78 141.694 361.616 142.003 361.368 142.237C361.119 142.47 360.8 142.615 360.461 142.648Z" fill="#63737A"/>
<path d="M369.183 170.5L344.793 171.227C344.556 171.228 344.321 171.179 344.104 171.084C343.887 170.989 343.693 170.849 343.533 170.674C343.373 170.499 343.252 170.293 343.176 170.068C343.101 169.844 343.074 169.606 343.097 169.37L344.389 156.615C344.442 156.084 344.682 155.589 345.067 155.219C345.452 154.849 345.956 154.628 346.489 154.596L371.04 153.385C371.281 153.371 371.522 153.41 371.746 153.5C371.97 153.591 372.17 153.73 372.333 153.908C372.495 154.086 372.616 154.299 372.686 154.529C372.756 154.76 372.773 155.004 372.736 155.242L371.283 168.482C371.243 169.018 371.007 169.52 370.619 169.893C370.232 170.265 369.72 170.482 369.183 170.5Z" fill="#B0D7C0"/>
<path d="M406.818 169.37L380.086 170.177C379.849 170.178 379.614 170.13 379.397 170.034C379.18 169.939 378.985 169.8 378.826 169.625C378.666 169.45 378.544 169.243 378.469 169.019C378.394 168.794 378.367 168.556 378.39 168.32L379.843 154.839C379.896 154.308 380.137 153.813 380.521 153.443C380.906 153.073 381.41 152.852 381.943 152.82L408.918 151.529C409.158 151.514 409.4 151.553 409.623 151.644C409.847 151.734 410.047 151.873 410.21 152.051C410.373 152.23 410.493 152.442 410.563 152.673C410.633 152.904 410.65 153.147 410.614 153.385L408.998 167.352C408.928 167.889 408.671 168.386 408.273 168.754C407.874 169.123 407.36 169.341 406.818 169.37Z" fill="#FFE779"/>
<path d="M447.764 168.159L418.286 169.047C418.047 169.054 417.809 169.01 417.589 168.917C417.369 168.824 417.172 168.685 417.011 168.509C416.849 168.332 416.728 168.123 416.656 167.895C416.583 167.668 416.561 167.427 416.59 167.19L418.286 152.982C418.352 152.456 418.597 151.969 418.979 151.602C419.361 151.234 419.858 151.009 420.386 150.964L450.025 149.51C450.266 149.496 450.507 149.535 450.731 149.625C450.955 149.716 451.155 149.855 451.318 150.033C451.48 150.211 451.601 150.424 451.671 150.654C451.741 150.885 451.758 151.129 451.721 151.367L449.864 166.141C449.811 166.672 449.571 167.166 449.186 167.536C448.801 167.906 448.297 168.127 447.764 168.159Z" fill="#F4C2C9"/>
<path d="M375.402 237.667L436.619 240.411C437.685 240.441 438.726 240.08 439.544 239.396C440.362 238.712 440.902 237.752 441.061 236.698L447.845 183.255C447.926 182.652 447.875 182.038 447.695 181.456C447.515 180.875 447.212 180.339 446.805 179.886C446.398 179.433 445.897 179.074 445.338 178.833C444.778 178.593 444.173 178.476 443.564 178.492L380.974 179.703C379.936 179.73 378.942 180.127 378.171 180.823C377.401 181.519 376.905 182.468 376.775 183.497L371.363 232.984C371.302 233.56 371.36 234.143 371.533 234.696C371.706 235.249 371.99 235.761 372.368 236.199C372.747 236.638 373.211 236.995 373.733 237.247C374.255 237.5 374.822 237.642 375.402 237.667Z" stroke="#63737A" stroke-width="1.8" stroke-linecap="round" stroke-linejoin="round"/>
<path d="M376.209 187.857L447.279 187.13" stroke="#63737A" stroke-width="1.8" stroke-linecap="round" stroke-linejoin="round"/>
<path d="M396.48 188.18L390.746 238.313" stroke="#63737A" stroke-width="1.8" stroke-linecap="round" stroke-linejoin="round"/>
<path d="M413.602 188.018L407.545 239.12" stroke="#63737A" stroke-width="1.8" stroke-linecap="round" stroke-linejoin="round"/>
<path d="M430.319 187.938L424.02 239.846" stroke="#63737A" stroke-width="1.8" stroke-linecap="round" stroke-linejoin="round"/>
<path d="M395.107 200.37L445.583 200.531" stroke="#63737A" stroke-width="1.8" stroke-linecap="round" stroke-linejoin="round"/>
<path d="M393.654 212.964L443.888 213.852" stroke="#63737A" stroke-width="1.8" stroke-linecap="round" stroke-linejoin="round"/>
<path d="M392.2 225.477L442.191 227.01" stroke="#63737A" stroke-width="1.8" stroke-linecap="round" stroke-linejoin="round"/>
<path d="M448.249 134.737C448.193 135.257 447.976 135.746 447.629 136.137C447.281 136.528 446.82 136.8 446.31 136.917C445.341 136.997 444.695 136.109 444.857 134.979C444.912 134.459 445.129 133.97 445.477 133.579C445.824 133.188 446.285 132.916 446.795 132.799C447.029 132.802 447.26 132.858 447.469 132.964C447.678 133.07 447.859 133.222 448 133.41C448.141 133.597 448.236 133.814 448.279 134.044C448.322 134.275 448.312 134.512 448.249 134.737Z" fill="#63737A"/>
<path d="M440.334 135.302C440.305 135.823 440.096 136.317 439.742 136.7C439.388 137.083 438.912 137.331 438.396 137.401C437.427 137.482 436.78 136.594 436.942 135.464C436.971 134.943 437.18 134.449 437.534 134.066C437.888 133.683 438.364 133.435 438.88 133.365C439.849 133.284 440.495 134.172 440.334 135.302Z" fill="#63737A"/>
<path d="M432.581 135.786C432.537 136.302 432.323 136.788 431.972 137.169C431.621 137.549 431.153 137.801 430.643 137.885C429.754 137.966 429.108 137.078 429.189 136.029C429.232 135.513 429.446 135.027 429.798 134.647C430.149 134.266 430.616 134.014 431.127 133.93C432.096 133.768 432.662 134.656 432.581 135.786Z" fill="#63737A"/>
<path d="M199.826 234.841L124.475 240.815C122.133 240.977 120.033 238.878 119.871 236.133L115.43 166.383C115.268 163.638 117.287 161.135 119.629 161.378L192.234 168.643C193.395 168.772 194.475 169.302 195.286 170.143C196.097 170.983 196.589 172.08 196.676 173.245L202.571 231.451C202.637 231.857 202.615 232.272 202.509 232.67C202.403 233.068 202.214 233.438 201.955 233.758C201.696 234.078 201.373 234.34 201.006 234.526C200.639 234.713 200.237 234.82 199.826 234.841Z" fill="#F8AB5D"/>
<path d="M203.46 234.195L127.221 240.25C124.798 240.411 122.698 238.312 122.537 235.568L118.175 165.414C118.014 162.589 120.114 160.086 122.456 160.328L195.949 167.513C197.119 167.638 198.21 168.164 199.035 169.004C199.86 169.843 200.368 170.943 200.472 172.115L206.448 230.643C206.497 231.505 206.215 232.352 205.66 233.012C205.104 233.673 204.317 234.096 203.46 234.195Z" fill="#FFE779"/>
<path d="M153.145 226.042L135.701 226.849C135.063 226.835 134.455 226.575 134.003 226.124C133.552 225.673 133.292 225.065 133.278 224.427L130.047 177.039C129.967 175.747 130.936 174.536 132.066 174.617L149.269 175.828C149.845 175.893 150.377 176.168 150.764 176.599C151.151 177.031 151.366 177.59 151.369 178.169L155.003 223.701C155.052 224.254 154.886 224.806 154.541 225.241C154.195 225.677 153.696 225.963 153.145 226.042Z" fill="#22272E"/>
<path d="M154.68 225.315L137.155 226.203C136.516 226.189 135.909 225.929 135.457 225.478C135.006 225.027 134.746 224.419 134.732 223.781L131.501 176.232C131.42 174.94 132.39 173.729 133.52 173.81L150.803 175.021C151.379 175.086 151.912 175.361 152.299 175.792C152.686 176.224 152.901 176.782 152.903 177.362L156.537 223.055C156.573 223.597 156.4 224.132 156.055 224.552C155.71 224.972 155.219 225.245 154.68 225.315Z" fill="#6DAFA7"/>
<path d="M140.385 177.443L143.05 177.604" stroke="#22272E" stroke-width="1.8" stroke-linecap="round" stroke-linejoin="round"/>
<path d="M144.504 177.685H144.746" stroke="#22272E" stroke-width="1.8" stroke-linecap="round" stroke-linejoin="round"/>
<path d="M131.743 179.945L153.226 181.156" stroke="#22272E" stroke-width="1.8" stroke-linecap="round" stroke-linejoin="round"/>
<path d="M134.489 220.068L156.214 219.341" stroke="#22272E" stroke-width="1.8" stroke-linecap="round" stroke-linejoin="round"/>
<path d="M189.811 178.25L172.851 176.958C172.612 176.933 172.369 176.961 172.142 177.042C171.915 177.122 171.709 177.252 171.538 177.422C171.368 177.592 171.238 177.799 171.158 178.026C171.077 178.253 171.049 178.495 171.074 178.734L171.64 185.354C171.672 185.764 171.854 186.148 172.153 186.431C172.451 186.715 172.844 186.877 173.255 186.888L190.215 187.534C190.459 187.549 190.704 187.511 190.932 187.422C191.16 187.333 191.366 187.196 191.536 187.019C191.705 186.842 191.833 186.63 191.912 186.398C191.991 186.167 192.018 185.92 191.992 185.677L191.426 179.703C191.338 179.325 191.136 178.982 190.847 178.723C190.559 178.463 190.197 178.298 189.811 178.25Z" fill="#6DAFA7"/>
<path d="M176.889 195.203C176.906 195.472 176.865 195.742 176.769 195.995C176.674 196.247 176.525 196.476 176.335 196.667C176.144 196.858 175.914 197.006 175.662 197.101C175.41 197.197 175.14 197.238 174.87 197.221C174.28 197.227 173.708 197.016 173.262 196.63C172.816 196.243 172.526 195.707 172.447 195.122C172.434 194.847 172.479 194.571 172.581 194.315C172.683 194.058 172.838 193.826 173.037 193.635C173.236 193.444 173.474 193.297 173.735 193.206C173.995 193.114 174.272 193.08 174.547 193.104C175.124 193.118 175.676 193.337 176.105 193.722C176.535 194.107 176.813 194.632 176.889 195.203Z" fill="#6DAFA7"/>
<path d="M180.604 195.284L192.153 195.445" stroke="#63737A" stroke-width="1.8" stroke-linecap="round" stroke-linejoin="round"/>
<path d="M177.535 202.307C177.547 202.579 177.504 202.851 177.408 203.106C177.312 203.361 177.165 203.593 176.976 203.789C176.787 203.986 176.56 204.142 176.309 204.248C176.059 204.354 175.789 204.408 175.516 204.406C174.938 204.414 174.376 204.215 173.931 203.845C173.487 203.475 173.19 202.958 173.093 202.388C173.077 202.108 173.12 201.828 173.22 201.566C173.319 201.304 173.474 201.066 173.672 200.867C173.87 200.669 174.108 200.515 174.371 200.415C174.633 200.316 174.913 200.273 175.193 200.289C175.761 200.287 176.311 200.49 176.741 200.861C177.172 201.232 177.454 201.745 177.535 202.307Z" fill="#6DAFA7"/>
<path d="M181.25 202.227L192.719 202.065" stroke="#63737A" stroke-width="1.8" stroke-linecap="round" stroke-linejoin="round"/>
<path d="M178.181 209.331C178.193 209.603 178.15 209.874 178.054 210.129C177.958 210.384 177.811 210.616 177.622 210.813C177.433 211.009 177.206 211.165 176.956 211.271C176.705 211.377 176.435 211.431 176.162 211.43C175.587 211.478 175.015 211.305 174.564 210.944C174.113 210.584 173.818 210.064 173.74 209.492C173.723 209.212 173.766 208.932 173.866 208.67C173.966 208.408 174.12 208.17 174.318 207.971C174.516 207.773 174.755 207.619 175.017 207.519C175.279 207.42 175.559 207.377 175.839 207.393C176.4 207.371 176.949 207.557 177.381 207.914C177.813 208.272 178.098 208.776 178.181 209.331Z" fill="#6DAFA7"/>
<path d="M181.816 209.169L193.284 208.685" stroke="#63737A" stroke-width="1.8" stroke-linecap="round" stroke-linejoin="round"/>
<path d="M165.26 286.266C164.21 286.266 168.894 275.125 173.74 276.659C178.585 278.193 171.397 286.346 165.26 286.266Z" fill="#6DAFA7"/>
<path d="M165.825 287.799C165.825 287.799 160.575 281.18 155.326 282.714C150.076 284.247 156.618 291.674 165.825 287.799Z" fill="#6DAFA7"/>
<path d="M164.29 281.18C164.29 281.18 172.124 267.698 168.813 264.469C162.917 258.737 155.487 275.69 164.29 281.18Z" fill="#6DAFA7"/>
<path d="M177.374 311.857L165.906 314.44C164.345 314.791 162.71 314.578 161.291 313.839C159.872 313.1 158.76 311.883 158.153 310.404L152.903 297.81C152.66 297.236 152.545 296.615 152.568 295.992C152.591 295.369 152.751 294.759 153.036 294.204C153.321 293.65 153.724 293.165 154.218 292.783C154.711 292.402 155.283 292.134 155.891 291.997L176.728 287.315C177.334 287.176 177.963 287.172 178.571 287.303C179.178 287.435 179.75 287.699 180.243 288.077C180.737 288.455 181.141 288.937 181.427 289.489C181.713 290.041 181.873 290.65 181.896 291.271L182.543 304.833C182.696 306.435 182.254 308.036 181.3 309.332C180.347 310.628 178.949 311.526 177.374 311.857Z" fill="#22272E"/>
<path d="M166.552 290.625C166.552 290.625 162.917 279.565 164.29 274.398" stroke="black" stroke-width="1.8" stroke-linecap="round" stroke-linejoin="round"/>
<path d="M207.417 336.318C207.417 336.318 206.933 341.888 205.64 345.198C204.348 348.508 202.087 352.544 202.814 358.115C203.541 363.685 208.871 371.839 210.971 371.596C213.07 371.354 211.94 367.802 211.94 367.802C211.94 367.802 214.04 370.789 216.059 369.901C218.078 369.013 215.332 362.555 215.332 362.555C215.332 362.555 217.835 366.591 220.097 366.107C222.358 365.622 217.835 359.245 217.835 359.245C217.835 359.245 220.824 362.555 221.631 362.07C222.439 361.586 223.166 361.828 221.631 358.034C220.097 354.24 222.6 341.888 222.52 339.063C222.439 336.237 211.455 333.734 207.417 336.318Z" fill="#F4C2C9"/>
<path d="M237.38 347.539L253.128 380.477C253.278 380.784 253.365 381.118 253.385 381.459C253.405 381.8 253.358 382.142 253.245 382.464C253.132 382.787 252.957 383.084 252.729 383.339C252.501 383.593 252.225 383.8 251.917 383.948L205.156 407.521C204.831 407.691 204.473 407.79 204.107 407.813C203.741 407.835 203.374 407.779 203.031 407.65C202.687 407.52 202.376 407.319 202.115 407.06C201.855 406.802 201.653 406.491 201.522 406.148L183.996 361.102C183.865 360.753 183.809 360.38 183.833 360.008C183.858 359.636 183.961 359.273 184.137 358.945C184.313 358.616 184.557 358.329 184.853 358.102C185.149 357.875 185.49 357.714 185.854 357.63L234.392 346.167C234.972 346 235.592 346.047 236.141 346.298C236.689 346.55 237.129 346.991 237.38 347.539Z" fill="#FFE779"/>
<path d="M215.17 384.271L217.755 390.487C217.838 390.672 217.883 390.872 217.888 391.075C217.892 391.278 217.855 391.479 217.78 391.668C217.705 391.856 217.592 392.027 217.449 392.171C217.306 392.315 217.135 392.429 216.947 392.505L210.325 395.492C210.135 395.585 209.928 395.638 209.717 395.647C209.506 395.657 209.296 395.622 209.099 395.546C208.901 395.471 208.722 395.355 208.572 395.207C208.421 395.059 208.303 394.881 208.225 394.685L205.56 388.146C205.484 387.955 205.447 387.751 205.451 387.546C205.455 387.341 205.5 387.139 205.582 386.951C205.665 386.764 205.784 386.594 205.933 386.453C206.081 386.311 206.256 386.201 206.448 386.128L213.071 383.464C213.459 383.322 213.886 383.326 214.272 383.474C214.658 383.622 214.977 383.905 215.17 384.271Z" fill="#6DAFA7"/>
<path d="M202.006 379.346L195.384 362.958" stroke="#63737A" stroke-width="1.8" stroke-linecap="round" stroke-linejoin="round"/>
<path d="M206.933 377.57L200.31 361.586" stroke="#63737A" stroke-width="1.8" stroke-linecap="round" stroke-linejoin="round"/>
<path d="M229.95 378.297L232.373 383.786C232.456 383.971 232.501 384.171 232.505 384.374C232.51 384.577 232.473 384.779 232.398 384.967C232.322 385.156 232.21 385.327 232.067 385.471C231.924 385.615 231.753 385.728 231.565 385.805L226.396 388.146C226.01 388.311 225.575 388.318 225.183 388.168C224.791 388.017 224.473 387.72 224.296 387.339L221.793 381.607C221.628 381.221 221.62 380.785 221.771 380.394C221.922 380.002 222.219 379.684 222.6 379.508L227.85 377.409C228.248 377.284 228.678 377.305 229.063 377.467C229.448 377.63 229.762 377.924 229.95 378.297Z" fill="#F4C2C9"/>
<path d="M218.32 373.453L211.859 358.438" stroke="#63737A" stroke-width="1.8" stroke-linecap="round" stroke-linejoin="round"/>
<path d="M222.52 371.919L216.059 357.307" stroke="#63737A" stroke-width="1.8" stroke-linecap="round" stroke-linejoin="round"/>
<path d="M242.064 371.839L245.617 379.427L238.753 382.575L235.118 374.664L242.064 371.839Z" stroke="black" stroke-width="1.8" stroke-linecap="round" stroke-linejoin="round"/>
<path d="M232.292 368.448L225.992 354.643" stroke="#63737A" stroke-width="1.8" stroke-linecap="round" stroke-linejoin="round"/>
<path d="M235.845 367.156L229.627 353.674" stroke="#63737A" stroke-width="1.8" stroke-linecap="round" stroke-linejoin="round"/>
<path d="M223.166 338.174C223.356 340.659 223.789 343.12 224.458 345.521C225.434 349.656 226.029 353.871 226.235 358.115C226.315 360.294 223.004 359.568 221.147 356.177C219.289 352.786 218.401 351.818 216.786 350.93C215.797 350.469 214.923 349.796 214.225 348.959C213.527 348.122 213.022 347.141 212.747 346.086C211.778 343.099 220.42 334.865 223.166 338.174Z" fill="#F4C2C9"/>
<path d="M249.575 204.326C244.971 204.326 232.534 206.102 221.874 229.917C212.99 249.695 207.821 260.755 206.529 269.716C205.237 278.677 204.187 300.07 205.075 315.732C205.963 331.393 206.69 338.013 206.69 338.013C206.69 338.013 213.959 342.776 223.57 338.013C223.57 338.013 226.073 318.8 228.011 307.497C229.95 296.195 230.677 284.813 230.192 279.727C230.192 279.727 242.872 257.445 248.525 248.565C254.34 239.685 275.58 204.326 249.575 204.326Z" fill="#6DAFA7"/>
<path d="M206.206 331.958C209.046 333.301 212.149 333.997 215.291 333.997C218.434 333.997 221.537 333.301 224.377 331.958" stroke="black" stroke-width="1.8" stroke-linecap="round" stroke-linejoin="round"/>
<path d="M206.852 267.536C207.313 266.367 208.081 265.345 209.077 264.577C210.072 263.81 211.257 263.326 212.505 263.177C217.997 262.37 221.066 267.94 219.774 274.56C218.482 281.18 213.474 284.49 209.436 283.763C208.623 283.624 207.86 283.275 207.223 282.751C206.586 282.227 206.096 281.547 205.802 280.776" stroke="black" stroke-width="1.8" stroke-linecap="round" stroke-linejoin="round"/>
<path d="M311.519 520.945C311.706 519.351 312.218 517.812 313.024 516.423C313.83 515.035 314.912 513.826 316.203 512.872C320.564 509.805 325.572 515.456 314.184 520.057" stroke="#63737A" stroke-width="1.8" stroke-linecap="round" stroke-linejoin="round"/>
<path d="M315.799 519.411C315.799 519.411 320.484 517.232 322.906 519.977C325.329 522.721 318.465 524.578 314.83 522.156" stroke="#63737A" stroke-width="1.8" stroke-linecap="round" stroke-linejoin="round"/>
<path d="M241.418 520.945C241.418 520.945 248.283 512.953 254.259 512.872C260.235 512.792 253.451 519.492 245.941 521.833" stroke="#63737A" stroke-width="1.8" stroke-linecap="round" stroke-linejoin="round"/>
<path d="M246.587 520.945C246.587 520.945 254.986 517.716 256.036 520.945C257.086 524.174 247.152 523.286 247.152 523.286" stroke="#63737A" stroke-width="1.8" stroke-linecap="round" stroke-linejoin="round"/>
<path d="M291.329 499.956C291.329 499.956 291.006 514.326 291.329 518.281C291.652 522.237 298.92 524.74 304.735 522.883C310.55 521.026 310.711 517.232 310.711 517.232C310.711 517.232 312.004 499.875 312.004 496.565C312.004 493.255 291.409 493.417 291.329 499.956Z" fill="#F4C2C9"/>
<path d="M291.329 499.956C291.329 499.956 291.248 503.427 291.248 507.464C297.79 509.966 305.785 509.159 311.438 508.19C311.761 503.346 312.084 498.099 312.084 496.404C312.004 493.174 291.409 493.417 291.329 499.956Z" fill="#22272E"/>
<path d="M291.167 515.859C291.167 515.859 290.036 515.698 288.906 524.255C287.775 532.813 286.887 537.979 290.279 538.625C293.671 539.271 325.895 538.625 329.367 538.625C332.84 538.625 335.182 536.768 335.021 534.508C334.859 532.247 326.137 528.695 322.099 525.466C318.061 522.237 312.165 518.362 311.519 516.182C310.388 512.55 308.127 511.177 306.189 515.859C304.654 519.492 300.616 519.896 295.609 519.25C294.622 519.168 293.679 518.805 292.892 518.204C292.105 517.603 291.506 516.79 291.167 515.859Z" fill="#22272E"/>
<path d="M323.31 526.354C323.31 526.354 316.607 527.807 317.576 536.122" stroke="#63737A" stroke-width="1.8" stroke-linecap="round" stroke-linejoin="round"/>
<path d="M225.508 497.211C225.508 497.211 223.731 515.052 223.893 517.474C224.054 519.896 231.807 520.622 236.814 519.977C241.822 519.331 242.468 517.797 242.468 517.797C242.468 517.797 246.425 501.086 246.425 497.292C246.425 493.497 227.123 492.529 225.508 497.211Z" fill="#F4C2C9"/>
<path d="M225.508 497.211C225.508 497.211 225.185 500.359 224.862 504.234C231.403 507.302 238.107 507.544 244.971 506.979C245.779 502.943 246.506 498.906 246.506 497.292C246.587 493.417 227.123 492.529 225.508 497.211Z" fill="#22272E"/>
<path d="M223.973 512.872C223.146 515.511 222.525 518.21 222.116 520.945C221.631 524.74 218.159 537.172 220.501 538.948C222.843 540.724 256.359 538.948 259.266 538.948C262.174 538.948 265.808 537.172 265.404 534.023C265 530.875 258.782 529.583 254.259 526.435C250.607 523.694 247.153 520.699 243.921 517.474C243.921 517.474 244.891 512.63 244.083 511.258C243.275 509.885 240.772 515.375 238.995 516.021C237.218 516.667 233.422 517.232 227.365 516.021C226.559 515.873 225.812 515.498 225.211 514.94C224.61 514.382 224.181 513.665 223.973 512.872Z" fill="#22272E"/>
<path d="M254.259 526.354C254.259 526.354 248.606 528.292 247.879 536.122" stroke="#63737A" stroke-width="1.8" stroke-linecap="round" stroke-linejoin="round"/>
<path d="M309.985 300.716C309.985 300.716 312.811 310.484 314.426 330.747C316.042 351.01 318.222 387.984 318.868 395.25C319.514 402.516 319.514 421.81 317.576 445.141C315.638 468.471 316.607 487.766 317.253 492.206C317.899 496.646 314.749 500.44 311.6 501.651C308.45 502.862 294.236 502.943 291.329 501.651C291.329 501.651 284.383 497.857 285.352 491.237C286.321 484.617 286.644 471.297 283.495 446.675C280.345 422.052 283.495 404.292 283.495 404.292C283.495 404.292 279.86 393.151 275.742 381.607C274.288 377.49 272.753 373.292 271.38 369.497C269.977 365.487 268.304 361.577 266.373 357.792C262.254 350.849 259.105 320.495 263.87 304.672C268.554 289.01 302.07 289.01 309.985 300.716Z" fill="#22272E"/>
<path d="M236.007 299.747C236.007 299.747 227.769 321.867 230.03 347.135C232.292 372.404 236.976 401.789 236.007 404.049C235.038 406.31 231.565 417.612 228.092 442.88C224.619 468.148 217.028 487.443 218.885 492.206C220.743 496.969 225.992 499.471 227.365 499.794C228.738 500.117 243.275 501.651 246.748 501.086C250.221 500.521 255.632 494.789 255.632 488.169C255.632 481.549 256.278 467.341 262.9 444.576C269.523 421.81 271.865 415.109 274.207 404.695C276.549 394.281 278.73 339.062 278.73 339.062C278.73 339.062 284.625 311.534 265.889 305.883C247.152 300.07 236.007 299.747 236.007 299.747Z" fill="#22272E"/>
<path d="M254.017 356.823C254.017 356.823 267.181 354.724 271.946 358.115" stroke="#63737A" stroke-width="1.8" stroke-linecap="round" stroke-linejoin="round"/>
<path d="M235.522 319.688C235.522 319.688 243.518 322.513 257.247 323.885C257.247 323.885 255.793 338.094 254.905 341.081C254.017 344.068 247.96 346.651 243.437 346.651C239.237 346.651 234.634 342.049 233.665 338.659C232.453 334.057 235.522 319.688 235.522 319.688Z" stroke="#63737A" stroke-width="1.8" stroke-linecap="round" stroke-linejoin="round"/>
<path d="M272.753 324.047C272.753 324.047 286.321 325.5 296.417 321.786C296.417 321.786 297.951 337.044 297.709 339.547C297.466 342.05 291.813 346.732 287.614 347.701C284.06 348.508 278.245 345.844 275.499 343.422C272.753 341 272.753 324.047 272.753 324.047Z" stroke="#63737A" stroke-width="1.8" stroke-linecap="round" stroke-linejoin="round"/>
<path d="M315.234 342.695C315.234 342.695 308.854 338.82 308.208 321.706" stroke="#63737A" stroke-width="1.8" stroke-linecap="round" stroke-linejoin="round"/>
<path d="M275.661 381.687C274.207 377.57 272.673 373.372 271.3 369.578C269.896 365.568 268.223 361.657 266.292 357.872" stroke="#63737A" stroke-width="1.8" stroke-linecap="round" stroke-linejoin="round"/>
<path d="M243.195 403.161C243.195 403.161 252.967 400.982 258.862 403.161" stroke="#63737A" stroke-width="1.8" stroke-linecap="round" stroke-linejoin="round"/>
<path d="M283.414 404.372C286.561 403.215 289.939 402.827 293.267 403.242" stroke="#63737A" stroke-width="1.8" stroke-linecap="round" stroke-linejoin="round"/>
<path d="M228.415 502.62C228.415 502.62 228.092 505.445 228.092 506.091" stroke="#63737A" stroke-width="1.8" stroke-linecap="round" stroke-linejoin="round"/>
<path d="M234.634 503.992C234.634 503.992 234.472 506.979 234.311 507.544" stroke="#63737A" stroke-width="1.8" stroke-linecap="round" stroke-linejoin="round"/>
<path d="M242.549 504.315C242.549 504.315 242.145 507.141 242.064 507.544" stroke="#63737A" stroke-width="1.8" stroke-linecap="round" stroke-linejoin="round"/>
<path d="M294.317 505.203V508.997" stroke="#63737A" stroke-width="1.8" stroke-linecap="round" stroke-linejoin="round"/>
<path d="M301.585 505.445C301.501 506.772 301.339 508.093 301.101 509.401" stroke="#63737A" stroke-width="1.8" stroke-linecap="round" stroke-linejoin="round"/>
<path d="M308.935 505.445C308.935 505.445 308.773 507.867 308.692 508.917" stroke="#63737A" stroke-width="1.8" stroke-linecap="round" stroke-linejoin="round"/>
<path d="M291.813 178.089C295.025 178.089 297.628 174.944 297.628 171.065C297.628 167.186 295.025 164.042 291.813 164.042C288.602 164.042 285.998 167.186 285.998 171.065C285.998 174.944 288.602 178.089 291.813 178.089Z" stroke="black" stroke-width="1.8" stroke-linecap="round" stroke-linejoin="round"/>
<path d="M291.732 155.242C291.732 155.242 293.832 158.956 293.186 166.948C292.54 174.94 294.317 181.56 293.348 186.807C292.97 188.772 292.075 190.601 290.755 192.105C289.434 193.609 287.737 194.734 285.837 195.365C283.656 196.01 272.35 197.544 266.777 190.117C261.204 182.69 256.116 160.812 265.162 156.615C274.207 152.417 287.937 150.964 291.732 155.242Z" fill="#F4C2C9"/>
<path d="M293.267 186.807C294.317 181.479 292.379 175.021 293.105 166.948C293.832 158.875 291.652 155.242 291.652 155.242C287.856 150.964 274.207 152.497 265.081 156.695C258.216 159.844 259.508 173.164 262.9 182.609C269.442 189.875 278.811 194.477 288.825 192.943C289.177 192.948 289.528 192.921 289.875 192.862C291.668 191.293 292.866 189.155 293.267 186.807Z" fill="#F4C2C9"/>
<path d="M262.981 182.609C263.899 185.298 265.176 187.851 266.777 190.198C272.35 197.625 283.575 196.01 285.837 195.445C287.358 194.923 288.759 194.099 289.956 193.023C289.471 192.943 280.91 198.352 262.981 182.609Z" fill="#E26E85"/>
<path d="M287.937 170.984L297.628 170.661" stroke="black" stroke-width="1.8" stroke-linecap="round" stroke-linejoin="round"/>
<path d="M276.388 190.682C276.388 190.682 280.587 192.216 283.091 194.961C283.091 194.961 282.283 199.643 282.606 201.984C282.929 204.326 279.537 209.331 272.188 208.927C264.839 208.523 258.539 202.953 258.539 202.953C258.539 202.953 259.428 192.781 260.639 189.794C261.851 186.807 276.388 190.682 276.388 190.682Z" fill="#F4C2C9"/>
<path d="M280.91 193.023C281.566 193.494 282.084 194.132 282.411 194.87C282.737 195.608 282.861 196.42 282.768 197.221C282.558 198.773 282.504 200.341 282.606 201.904" stroke="#E26E85" stroke-width="1.8" stroke-linecap="round" stroke-linejoin="round"/>
<path d="M287.371 171.469C288.48 170.604 289.298 169.421 289.713 168.078C290.279 165.979 290.602 164.365 290.602 164.365C291.367 165.043 292.241 165.588 293.186 165.979C294.721 166.544 298.678 162.346 299.243 156.615C299.809 150.883 297.143 144.909 290.602 142.406C288.098 141.437 284.302 141.276 280.507 141.518C275.193 141.885 270.056 143.578 265.566 146.443C264.482 147.112 263.273 147.552 262.012 147.734C257.328 148.38 254.421 150.237 251.675 156.776C248.929 163.315 248.606 168.32 252.321 176.151C256.036 183.982 257.166 184.466 257.732 187.695C258.297 190.924 257.57 194.557 260.155 193.992C267.262 192.378 274.53 194.396 276.226 193.346C277.922 192.297 283.576 182.286 284.222 177.443C284.868 172.599 286.321 170.904 287.371 171.469Z" fill="#22272E"/>
<path d="M288.421 171.953C288.421 171.953 286.725 167.432 283.495 168.805C279.134 170.661 281.799 178.331 285.998 179.622" fill="#F4C2C9"/>
<path d="M283.656 172.76C283.535 172.393 283.535 171.997 283.656 171.63C283.734 171.407 283.874 171.211 284.06 171.065C284.216 170.911 284.414 170.805 284.629 170.762C284.845 170.719 285.068 170.74 285.271 170.823C285.438 170.883 285.58 170.997 285.675 171.146C285.756 171.227 285.837 171.388 285.918 171.469C285.998 171.549 285.998 171.711 286.079 171.792C286.206 172.126 286.261 172.484 286.241 172.841C286.321 173.487 286.241 174.133 286.321 174.536C286.402 174.94 286.725 175.263 287.452 175.424C287.316 175.558 287.149 175.657 286.966 175.714C286.784 175.77 286.59 175.781 286.402 175.747C286.175 175.707 285.958 175.622 285.764 175.497C285.57 175.373 285.403 175.211 285.271 175.021C284.975 174.359 284.81 173.646 284.787 172.922C284.787 172.599 284.706 172.276 284.706 172.115V171.872H284.787C284.706 171.792 284.545 171.792 284.302 171.953C284.022 172.163 283.799 172.441 283.656 172.76Z" fill="black"/>
<path d="M257.812 201.984C257.812 201.984 258.539 196.818 259.024 195.93C259.508 195.042 271.623 194.154 278.568 195.93C285.514 197.706 284.868 203.599 284.868 203.599C284.868 203.599 272.35 202.146 257.812 201.984Z" fill="#6DAFA7"/>
<path d="M233.665 220.794C235.038 213.044 237.945 201.016 265.969 200.935C289.875 200.854 300.939 204.406 306.754 208.846C312.569 213.286 313.215 224.992 311.358 243.318C309.5 261.643 309.177 272.542 310.227 283.924C311.277 295.307 315.88 300.232 309.742 306.367C296.655 310.218 283.084 312.175 269.442 312.18C246.829 312.18 235.603 305.883 235.118 304.107C234.634 302.331 232.453 301.766 234.472 297.164C236.491 292.562 237.864 276.336 236.572 266.568C235.28 256.799 230.273 240.25 233.665 220.794Z" fill="#FFE779"/>
<mask id="mask1_16_2" style="mask-type:luminance" maskUnits="userSpaceOnUse" x="232" y="200" width="81" height="113">
<path d="M233.665 220.794C235.038 213.044 237.945 201.016 265.969 200.935C289.875 200.854 300.939 204.406 306.754 208.846C312.569 213.286 313.215 224.992 311.357 243.318C309.5 261.643 309.177 272.542 310.227 283.924C311.277 295.307 315.88 300.232 309.742 306.367C296.655 310.218 283.084 312.175 269.442 312.18C246.829 312.18 235.603 305.883 235.118 304.107C234.634 302.331 232.453 301.766 234.472 297.164C236.491 292.562 237.864 276.336 236.572 266.568C235.845 260.836 233.746 252.763 232.857 243.156C232.179 235.698 232.45 228.184 233.665 220.794Z" fill="white"/>
</mask>
<g mask="url(#mask1_16_2)">
<path d="M239.976 311.129L237.093 314.069L240.034 316.951L242.918 314.011L239.976 311.129Z" fill="#F8AB5D"/>
<path d="M239.834 297.745L236.951 300.685L239.892 303.567L242.776 300.627L239.834 297.745Z" fill="#F8AB5D"/>
<path d="M239.629 284.298L236.745 287.238L239.686 290.12L242.57 287.18L239.629 284.298Z" fill="#F8AB5D"/>
<path d="M239.542 270.859L236.659 273.799L239.6 276.681L242.484 273.741L239.542 270.859Z" fill="#F8AB5D"/>
<path d="M239.392 257.476L236.509 260.416L239.45 263.298L242.333 260.358L239.392 257.476Z" fill="#F8AB5D"/>
<path d="M251.993 311.007L249.11 313.947L252.051 316.829L254.935 313.889L251.993 311.007Z" fill="#F8AB5D"/>
<path d="M251.899 297.568L249.016 300.508L251.957 303.39L254.84 300.45L251.899 297.568Z" fill="#F8AB5D"/>
<path d="M251.763 284.19L248.879 287.13L251.821 290.012L254.704 287.072L251.763 284.19Z" fill="#F8AB5D"/>
<path d="M251.621 270.807L248.737 273.747L251.679 276.629L254.562 273.689L251.621 270.807Z" fill="#F8AB5D"/>
<path d="M251.526 257.36L248.643 260.3L251.584 263.182L254.468 260.242L251.526 257.36Z" fill="#F8AB5D"/>
<path d="M264.127 310.899L261.244 313.839L264.185 316.721L267.069 313.781L264.127 310.899Z" fill="#F8AB5D"/>
<path d="M263.977 297.515L261.094 300.455L264.035 303.338L266.919 300.398L263.977 297.515Z" fill="#F8AB5D"/>
<path d="M263.835 284.012L260.952 286.953L263.893 289.835L266.777 286.895L263.835 284.012Z" fill="#F8AB5D"/>
<path d="M263.685 270.629L260.802 273.569L263.743 276.451L266.626 273.511L263.685 270.629Z" fill="#F8AB5D"/>
<path d="M263.549 257.251L260.666 260.192L263.607 263.074L266.49 260.134L263.549 257.251Z" fill="#F8AB5D"/>
<path d="M276.142 310.782L273.259 313.723L276.2 316.605L279.083 313.665L276.142 310.782Z" fill="#F8AB5D"/>
<path d="M276.056 297.343L273.172 300.284L276.114 303.166L278.997 300.226L276.056 297.343Z" fill="#F8AB5D"/>
<path d="M275.906 283.96L273.022 286.9L275.964 289.782L278.847 286.842L275.906 283.96Z" fill="#F8AB5D"/>
<path d="M275.764 270.569L272.88 273.509L275.821 276.391L278.705 273.451L275.764 270.569Z" fill="#F8AB5D"/>
<path d="M275.677 257.13L272.794 260.07L275.735 262.952L278.619 260.012L275.677 257.13Z" fill="#F8AB5D"/>
<path d="M288.282 310.669L285.398 313.609L288.34 316.491L291.223 313.551L288.282 310.669Z" fill="#F8AB5D"/>
<path d="M288.14 297.277L285.256 300.217L288.198 303.099L291.081 300.159L288.14 297.277Z" fill="#F8AB5D"/>
<path d="M287.99 283.782L285.106 286.723L288.048 289.605L290.931 286.665L287.99 283.782Z" fill="#F8AB5D"/>
<path d="M287.848 270.399L284.964 273.339L287.906 276.221L290.789 273.281L287.848 270.399Z" fill="#F8AB5D"/>
<path d="M287.697 257.016L284.814 259.956L287.755 262.838L290.639 259.898L287.697 257.016Z" fill="#F8AB5D"/>
<path d="M300.354 310.491L297.471 313.431L300.412 316.313L303.296 313.373L300.354 310.491Z" fill="#F8AB5D"/>
<path d="M300.204 297.108L297.321 300.048L300.262 302.93L303.146 299.99L300.204 297.108Z" fill="#F8AB5D"/>
<path d="M300.068 283.73L297.185 286.67L300.126 289.552L303.009 286.612L300.068 283.73Z" fill="#F8AB5D"/>
<path d="M299.974 270.283L297.09 273.223L300.032 276.105L302.915 273.165L299.974 270.283Z" fill="#F8AB5D"/>
<path d="M299.832 256.9L296.948 259.84L299.89 262.722L302.773 259.782L299.832 256.9Z" fill="#F8AB5D"/>
<path d="M312.425 310.439L309.541 313.379L312.483 316.261L315.366 313.321L312.425 310.439Z" fill="#F8AB5D"/>
<path d="M312.338 296.992L309.455 299.932L312.396 302.814L315.28 299.874L312.338 296.992Z" fill="#F8AB5D"/>
<path d="M312.133 283.553L309.249 286.493L312.191 289.375L315.074 286.435L312.133 283.553Z" fill="#F8AB5D"/>
<path d="M311.991 270.169L309.107 273.109L312.048 275.991L314.932 273.051L311.991 270.169Z" fill="#F8AB5D"/>
<path d="M311.904 256.722L309.021 259.662L311.962 262.544L314.846 259.604L311.904 256.722Z" fill="#F8AB5D"/>
<path d="M239.25 244.092L236.367 247.032L239.308 249.915L242.191 246.974L239.25 244.092Z" fill="#F8AB5D"/>
<path d="M239.164 230.645L236.28 233.585L239.222 236.468L242.105 233.527L239.164 230.645Z" fill="#F8AB5D"/>
<path d="M239.014 217.262L236.13 220.202L239.072 223.084L241.955 220.144L239.014 217.262Z" fill="#F8AB5D"/>
<path d="M238.872 203.878L235.988 206.819L238.93 209.701L241.813 206.761L238.872 203.878Z" fill="#F8AB5D"/>
<path d="M251.328 243.921L248.445 246.861L251.386 249.743L254.27 246.803L251.328 243.921Z" fill="#F8AB5D"/>
<path d="M251.178 230.537L248.295 233.477L251.236 236.359L254.12 233.419L251.178 230.537Z" fill="#F8AB5D"/>
<path d="M251.092 217.09L248.209 220.03L251.15 222.912L254.033 219.972L251.092 217.09Z" fill="#F8AB5D"/>
<path d="M250.942 203.707L248.059 206.647L251 209.529L253.883 206.589L250.942 203.707Z" fill="#F8AB5D"/>
<path d="M263.454 243.804L260.571 246.744L263.512 249.627L266.396 246.686L263.454 243.804Z" fill="#F8AB5D"/>
<path d="M263.312 230.421L260.429 233.361L263.37 236.243L266.254 233.303L263.312 230.421Z" fill="#F8AB5D"/>
<path d="M263.17 217.038L260.287 219.978L263.228 222.86L266.112 219.92L263.17 217.038Z" fill="#F8AB5D"/>
<path d="M263.076 203.599L260.193 206.539L263.134 209.421L266.017 206.481L263.076 203.599Z" fill="#F8AB5D"/>
<path d="M275.533 243.74L272.649 246.681L275.591 249.563L278.474 246.623L275.533 243.74Z" fill="#F8AB5D"/>
<path d="M275.385 230.252L272.502 233.192L275.443 236.074L278.326 233.134L275.385 230.252Z" fill="#F8AB5D"/>
<path d="M275.241 216.866L272.357 219.806L275.299 222.688L278.182 219.748L275.241 216.866Z" fill="#F8AB5D"/>
<path d="M275.099 203.482L272.215 206.422L275.157 209.305L278.04 206.365L275.099 203.482Z" fill="#F8AB5D"/>
<path d="M287.611 243.569L284.728 246.509L287.669 249.391L290.552 246.451L287.611 243.569Z" fill="#F8AB5D"/>
<path d="M287.461 230.185L284.578 233.125L287.519 236.008L290.402 233.068L287.461 230.185Z" fill="#F8AB5D"/>
<path d="M287.319 216.802L284.436 219.742L287.377 222.624L290.26 219.684L287.319 216.802Z" fill="#F8AB5D"/>
<path d="M287.233 203.363L284.349 206.303L287.291 209.185L290.174 206.245L287.233 203.363Z" fill="#F8AB5D"/>
<path d="M299.681 243.516L296.798 246.456L299.739 249.339L302.623 246.398L299.681 243.516Z" fill="#F8AB5D"/>
<path d="M299.539 230.013L296.656 232.954L299.597 235.836L302.481 232.896L299.539 230.013Z" fill="#F8AB5D"/>
<path d="M299.397 216.63L296.514 219.57L299.455 222.452L302.339 219.512L299.397 216.63Z" fill="#F8AB5D"/>
<path d="M299.247 203.247L296.364 206.187L299.305 209.069L302.189 206.129L299.247 203.247Z" fill="#F8AB5D"/>
<path d="M311.76 243.344L308.877 246.284L311.818 249.167L314.701 246.227L311.76 243.344Z" fill="#F8AB5D"/>
<path d="M311.618 229.961L308.734 232.901L311.676 235.783L314.559 232.843L311.618 229.961Z" fill="#F8AB5D"/>
<path d="M311.523 216.522L308.64 219.462L311.581 222.344L314.465 219.404L311.523 216.522Z" fill="#F8AB5D"/>
<path d="M311.381 203.139L308.498 206.079L311.439 208.961L314.323 206.021L311.381 203.139Z" fill="#F8AB5D"/>
</g>
<path d="M343.258 201.016C343.258 201.016 345.116 194.961 344.874 192.781C344.631 190.602 342.855 185.758 342.047 183.982C341.239 182.206 341.885 177.2 341.724 174.698C341.562 172.195 344.47 172.841 345.277 175.344C345.646 176.652 346.248 177.882 347.054 178.977C347.054 178.977 350.204 171.711 350.688 169.693C351.173 167.674 352.465 161.216 354.403 159.682C356.342 158.148 357.069 159.763 356.019 164.122C355.584 165.728 355.367 167.384 355.373 169.047C355.373 169.289 357.715 169.693 358.684 171.065C359.045 171.916 359.289 172.812 359.411 173.729C360.086 173.738 360.749 173.904 361.349 174.214C361.914 174.536 362.56 175.586 363.126 176.07C363.702 176.603 364.217 177.199 364.66 177.846C365.387 178.896 365.952 180.995 363.772 189.875C362.56 194.719 360.38 196.414 358.765 207.716C356.907 219.018 341.643 208.2 343.258 201.016Z" fill="#F4C2C9"/>
<path d="M344.551 195.607C344.066 198.109 343.258 200.935 343.258 200.935C341.643 208.12 356.907 218.938 358.603 207.635C359.007 204.729 359.492 202.388 359.895 200.531C355.938 196.414 350.689 194.073 344.551 195.607Z" fill="#63737A"/>
<path d="M356.256 202.654C358.07 201.795 358.782 199.498 357.846 197.524C356.91 195.549 354.681 194.645 352.867 195.504C351.053 196.363 350.341 198.66 351.277 200.634C352.213 202.609 354.442 203.513 356.256 202.654Z" fill="white"/>
<path d="M304.331 207.312C304.331 207.312 310.711 207.312 319.757 219.503C328.802 231.693 330.66 234.841 330.66 234.841C332.268 229.314 334.155 223.871 336.313 218.534C338.374 213.239 340.1 207.819 341.482 202.307C341.655 201.582 342.026 200.919 342.554 200.392C343.081 199.865 343.744 199.494 344.47 199.32C347.781 198.594 353.757 198.513 358.845 205.94C359.409 206.797 359.639 207.831 359.492 208.846C358.684 213.529 356.342 227.979 354.403 242.026C352.061 259.06 350.769 273.43 339.22 274.883C330.902 275.932 318.788 265.034 310.308 256.557C306.996 253.247 304.25 250.26 302.554 248.484C298.274 244.125 291.571 235.648 291.571 223.458C291.571 210.057 301.505 206.505 304.331 207.312Z" fill="#6DAFA7"/>
<path d="M310.308 256.638C306.996 253.328 304.25 250.341 302.554 248.565C298.274 244.206 291.571 235.729 291.571 223.539" stroke="#F8AB5D" stroke-width="1.8" stroke-linecap="round" stroke-linejoin="round"/>
<path d="M330.66 234.76C330.66 234.76 341.078 248.323 343.581 254.862" stroke="black" stroke-width="1.8" stroke-linecap="round" stroke-linejoin="round"/>
<path d="M334.052 274.156C333.486 273.753 332.84 272.945 332.921 271.25C333.082 268.182 336.151 263.258 341.966 262.047C346.893 260.997 349.396 262.531 349.881 264.146" stroke="black" stroke-width="1.8" stroke-linecap="round" stroke-linejoin="round"/>
<path d="M340.836 204.729C340.836 204.729 351.173 200.208 358.845 212.56" stroke="black" stroke-width="1.8" stroke-linecap="round" stroke-linejoin="round"/>
<path d="M355.211 168.966C355.211 168.966 355.05 171.711 354.969 172.195C354.888 172.68 354.161 175.667 354.08 176.797" stroke="#E26E85" stroke-width="1.8" stroke-linecap="round" stroke-linejoin="round"/>
<path d="M359.249 173.648V175.99C359.176 176.912 359.041 177.829 358.845 178.734" stroke="#E26E85" stroke-width="1.8" stroke-linecap="round" stroke-linejoin="round"/>
<path d="M362.722 176.151C362.862 176.87 362.943 177.599 362.964 178.331C362.894 179.387 362.759 180.439 362.56 181.479" stroke="#E26E85" stroke-width="1.8" stroke-linecap="round" stroke-linejoin="round"/>
<path d="M346.973 178.896C346.708 179.559 346.355 180.183 345.924 180.753" stroke="#E26E85" stroke-width="1.8" stroke-linecap="round" stroke-linejoin="round"/>
<path d="M306.108 90.3359C306.108 90.3359 301.182 109.953 308.45 123.193C308.582 123.443 308.762 123.664 308.979 123.844C309.197 124.025 309.448 124.16 309.719 124.242C309.989 124.325 310.273 124.353 310.554 124.325C310.836 124.298 311.109 124.215 311.358 124.081L321.21 118.591L317.253 88.8828L306.108 90.3359Z" fill="#6DAFA7"/>
<path d="M308.289 90.7396C308.289 90.7396 303.604 110.195 314.911 124.404C315.248 124.807 315.717 125.077 316.235 125.166C316.753 125.254 317.286 125.156 317.738 124.888L330.094 117.461L319.918 87.7526C319.838 87.8334 309.904 88.3177 308.289 90.7396Z" fill="#FFE779"/>
<path d="M306.108 90.3359L310.792 91.3047L337.201 81.1328L332.194 80.3255L306.108 90.3359Z" fill="#B0D7C0"/>
<path d="M337.201 81.1328C337.201 81.1328 337.605 94.0495 353.111 103.818C353.426 104.005 353.686 104.271 353.867 104.59C354.048 104.908 354.143 105.268 354.143 105.634C354.143 106 354.048 106.36 353.867 106.679C353.686 106.997 353.426 107.263 353.111 107.451L328.398 122.062C328.084 122.253 327.726 122.361 327.359 122.375C326.991 122.389 326.626 122.309 326.298 122.143C310.55 113.828 310.792 91.224 310.792 91.224L337.201 81.1328Z" fill="#6DAFA7"/>
<path d="M330.417 97.4401C330.213 97.1859 329.967 96.9676 329.69 96.7943C329.299 96.6198 328.868 96.5523 328.442 96.5986C328.016 96.6448 327.61 96.8033 327.265 97.0577C326.92 97.3121 326.649 97.6534 326.479 98.0468C326.309 98.4402 326.247 98.8716 326.298 99.2969C326.449 100.278 326.748 101.231 327.187 102.122C327.37 101.535 327.704 101.006 328.156 100.589C328.662 100.13 329.234 99.7489 329.852 99.4584C331.235 98.8026 332.791 98.6046 334.294 98.8933C335.719 99.1764 336.987 99.9828 337.847 101.154C338.283 101.737 338.594 102.403 338.761 103.111C338.928 103.82 338.947 104.555 338.816 105.271C338.574 106.805 337.444 108.177 335.263 109.307C334.248 109.864 333.109 110.156 331.952 110.156C330.794 110.156 329.655 109.864 328.641 109.307C326.913 108.284 325.535 106.765 324.683 104.948C324.144 104.031 323.71 103.056 323.391 102.042C322.959 100.911 322.821 99.6887 322.987 98.4896C323.117 97.6282 323.48 96.8186 324.037 96.1485C324.696 95.3959 325.527 94.8141 326.46 94.4532C327.744 93.8523 329.18 93.6553 330.579 93.8881C331.806 94.0804 332.908 94.7473 333.648 95.7448C332.356 96.4714 331.709 96.7943 330.417 97.4401ZM331.306 107.37C332.135 107.599 333.017 107.542 333.809 107.208C334.146 107.061 334.444 106.839 334.682 106.559C334.92 106.279 335.091 105.949 335.182 105.594C335.238 105.224 335.216 104.846 335.119 104.485C335.022 104.124 334.851 103.787 334.617 103.495C334.179 102.781 333.486 102.262 332.679 102.042C331.954 101.85 331.186 101.907 330.498 102.203C329.95 102.42 329.494 102.819 329.206 103.333C329.013 103.733 328.934 104.177 328.977 104.619C329.019 105.06 329.182 105.481 329.448 105.836C329.867 106.55 330.525 107.093 331.306 107.37Z" fill="#FFE779"/>
<path d="M224.862 139.5H251.513L254.259 141.276C254.459 141.403 254.69 141.473 254.927 141.479C255.164 141.485 255.398 141.427 255.605 141.311C255.812 141.196 255.983 141.026 256.102 140.821C256.22 140.616 256.281 140.383 256.278 140.146V121.336C256.281 120.879 256.194 120.426 256.02 120.004C255.847 119.581 255.591 119.197 255.268 118.874C254.945 118.551 254.561 118.296 254.138 118.122C253.715 117.949 253.262 117.861 252.805 117.865H224.862C224.405 117.861 223.952 117.949 223.529 118.122C223.106 118.296 222.722 118.551 222.399 118.874C222.076 119.197 221.82 119.581 221.647 120.004C221.473 120.426 221.386 120.879 221.389 121.336V136.029C221.386 136.485 221.473 136.938 221.647 137.361C221.82 137.784 222.076 138.167 222.399 138.49C222.722 138.813 223.106 139.069 223.529 139.242C223.952 139.416 224.405 139.503 224.862 139.5Z" fill="#F4C2C9"/>
<path d="M229.304 125.372L230.677 126.745L233.342 124.081" stroke="#22272E" stroke-width="1.8" stroke-linecap="round" stroke-linejoin="round"/>
<path d="M237.461 125.776H246.829" stroke="#22272E" stroke-width="1.8" stroke-linecap="round" stroke-linejoin="round"/>
<path d="M229.304 131.911L230.677 133.284L233.342 130.62" stroke="#22272E" stroke-width="1.8" stroke-linecap="round" stroke-linejoin="round"/>
<path d="M237.461 132.315H246.829" stroke="#22272E" stroke-width="1.8" stroke-linecap="round" stroke-linejoin="round"/>
<path d="M349.719 373.292L347.296 375.875C347.201 375.97 347.125 376.083 347.073 376.208C347.021 376.333 346.994 376.467 346.994 376.602C346.994 376.737 347.021 376.87 347.073 376.995C347.125 377.12 347.201 377.233 347.296 377.328C347.461 377.526 347.695 377.654 347.951 377.684C348.206 377.714 348.464 377.644 348.669 377.49L351.496 375.794L349.719 373.292Z" fill="#22272E"/>
<path d="M371.283 379.589L371.929 383.06C371.971 383.326 371.911 383.599 371.762 383.823C371.612 384.047 371.383 384.207 371.121 384.271C370.885 384.344 370.63 384.327 370.406 384.222C370.182 384.118 370.005 383.934 369.91 383.706L368.456 380.719L371.283 379.589Z" fill="#22272E"/>
<path d="M363.368 382.576C372.244 382.576 379.44 375.383 379.44 366.51C379.44 357.638 372.244 350.445 363.368 350.445C354.492 350.445 347.296 357.638 347.296 366.51C347.296 375.383 354.492 382.576 363.368 382.576Z" fill="#6DAFA7"/>
<path d="M363.368 376.844C369.077 376.844 373.706 372.217 373.706 366.51C373.706 360.804 369.077 356.177 363.368 356.177C357.659 356.177 353.031 360.804 353.031 366.51C353.031 372.217 357.659 376.844 363.368 376.844Z" fill="#FFE779"/>
<path d="M366.275 370.224L363.368 366.51L364.903 361.344" stroke="#63737A" stroke-width="1.8" stroke-linecap="round" stroke-linejoin="round"/>
<path d="M353.111 351.01C353.005 351.047 352.893 351.062 352.781 351.053C352.669 351.044 352.561 351.012 352.462 350.959C352.363 350.906 352.276 350.833 352.207 350.744C352.139 350.656 352.089 350.554 352.061 350.445C351.895 349.393 352.093 348.316 352.621 347.392C353.15 346.467 353.978 345.75 354.969 345.359C355.968 344.968 357.073 344.94 358.091 345.279C359.11 345.619 359.977 346.304 360.541 347.216C360.595 347.316 360.627 347.426 360.636 347.538C360.645 347.651 360.629 347.765 360.591 347.871C360.553 347.978 360.493 348.075 360.415 348.157C360.337 348.239 360.242 348.303 360.138 348.346L353.111 351.01Z" fill="#6DAFA7"/>
<path d="M380.328 358.922C380.392 359.021 380.479 359.103 380.58 359.162C380.682 359.222 380.796 359.257 380.914 359.265C381.031 359.273 381.149 359.253 381.257 359.207C381.366 359.162 381.463 359.092 381.539 359.003C382.254 358.201 382.669 357.175 382.712 356.102C382.756 355.029 382.425 353.973 381.778 353.116C381.13 352.259 380.204 351.653 379.16 351.402C378.115 351.15 377.015 351.269 376.048 351.737C375.945 351.794 375.855 351.872 375.785 351.967C375.716 352.062 375.668 352.171 375.645 352.286C375.622 352.401 375.624 352.52 375.652 352.635C375.68 352.749 375.732 352.856 375.805 352.948L380.328 358.922Z" fill="#6DAFA7"/>
<path d="M370.637 349.234L366.437 348.023C366.271 347.979 366.115 347.901 365.979 347.795C365.844 347.689 365.731 347.557 365.648 347.406C365.565 347.255 365.513 347.089 365.496 346.917C365.479 346.746 365.497 346.573 365.549 346.409C365.593 346.242 365.671 346.087 365.777 345.951C365.883 345.816 366.016 345.703 366.167 345.62C366.318 345.537 366.484 345.486 366.655 345.468C366.827 345.451 367 345.469 367.164 345.521L371.363 346.732C371.53 346.776 371.686 346.854 371.821 346.96C371.957 347.066 372.07 347.199 372.153 347.349C372.236 347.5 372.287 347.666 372.304 347.838C372.321 348.009 372.304 348.182 372.252 348.346C372.215 348.517 372.142 348.678 372.038 348.818C371.934 348.959 371.8 349.075 371.647 349.159C371.494 349.243 371.324 349.294 371.15 349.307C370.976 349.32 370.801 349.295 370.637 349.234Z" fill="#6DAFA7"/>
<path d="M367.229 347.507L366.08 351.461L369.104 352.339L370.253 348.385L367.229 347.507Z" fill="#6DAFA7"/>
</svg>
