<svg width="42" height="42" viewBox="0 0 42 42" fill="none" xmlns="http://www.w3.org/2000/svg">
<g id="Frame">
<path id="Vector" d="M21 33.8625C24.5583 30.5958 27.1979 27.6281 28.9187 24.9594C30.6396 22.2906 31.5 19.9208 31.5 17.85C31.5 14.6708 30.4865 12.0677 28.4594 10.0406C26.4323 8.01354 23.9458 7 21 7C18.0542 7 15.5677 8.01354 13.5406 10.0406C11.5135 12.0677 10.5 14.6708 10.5 17.85C10.5 19.9208 11.3604 22.2906 13.0812 24.9594C14.8021 27.6281 17.4417 30.5958 21 33.8625ZM21 37.3188C20.5917 37.3188 20.1833 37.2458 19.775 37.1C19.3667 36.9542 19.0021 36.7354 18.6812 36.4438C16.7854 34.6938 15.1083 32.9875 13.65 31.325C12.1917 29.6625 10.974 28.051 9.99688 26.4906C9.01979 24.9302 8.27604 23.4281 7.76562 21.9844C7.25521 20.5406 7 19.1625 7 17.85C7 13.475 8.40729 9.98958 11.2219 7.39375C14.0365 4.79792 17.2958 3.5 21 3.5C24.7042 3.5 27.9635 4.79792 30.7781 7.39375C33.5927 9.98958 35 13.475 35 17.85C35 19.1625 34.7448 20.5406 34.2344 21.9844C33.724 23.4281 32.9802 24.9302 32.0031 26.4906C31.026 28.051 29.8083 29.6625 28.35 31.325C26.8917 32.9875 25.2146 34.6938 23.3188 36.4438C22.9979 36.7354 22.6333 36.9542 22.225 37.1C21.8167 37.2458 21.4083 37.3188 21 37.3188ZM21 21C21.9625 21 22.7865 20.6573 23.4719 19.9719C24.1573 19.2865 24.5 18.4625 24.5 17.5C24.5 16.5375 24.1573 15.7135 23.4719 15.0281C22.7865 14.3427 21.9625 14 21 14C20.0375 14 19.2135 14.3427 18.5281 15.0281C17.8427 15.7135 17.5 16.5375 17.5 17.5C17.5 18.4625 17.8427 19.2865 18.5281 19.9719C19.2135 20.6573 20.0375 21 21 21Z" fill="#2E2E2E"/>
</g>
</svg>
