<svg width="42" height="42" viewBox="0 0 42 42" fill="none" xmlns="http://www.w3.org/2000/svg">
<g id="Frame">
<path id="Vector" d="M31.5 22.75V19.25H38.5V22.75H31.5ZM33.6 35L28 30.8L30.1 28L35.7 32.2L33.6 35ZM30.1 14L28 11.2L33.6 7L35.7 9.8L30.1 14ZM8.75 33.25V26.25H7C6.0375 26.25 5.21354 25.9073 4.52812 25.2219C3.84271 24.5365 3.5 23.7125 3.5 22.75V19.25C3.5 18.2875 3.84271 17.4635 4.52812 16.7781C5.21354 16.0927 6.0375 15.75 7 15.75H14L22.75 10.5V31.5L14 26.25H12.25V33.25H8.75ZM19.25 25.2875V16.7125L14.9625 19.25H7V22.75H14.9625L19.25 25.2875ZM24.5 26.8625V15.1375C25.2875 15.8375 25.9219 16.6906 26.4031 17.6969C26.8844 18.7031 27.125 19.8042 27.125 21C27.125 22.1958 26.8844 23.2969 26.4031 24.3031C25.9219 25.3094 25.2875 26.1625 24.5 26.8625Z" fill="black"/>
</g>
</svg>
