<svg width="42" height="42" viewBox="0 0 42 42" fill="none" xmlns="http://www.w3.org/2000/svg">
<g id="Frame">
<path id="Vector" d="M15.4 19.1625L19.1625 15.3562L16.7125 12.8625L14.7875 14.7875L12.3375 12.3375L14.2188 10.4125L12.25 8.44375L8.44375 12.25L15.4 19.1625ZM29.75 33.5562L33.5562 29.75L31.5875 27.7812L29.6625 29.6625L27.2125 27.2125L29.0938 25.2875L26.6 22.8375L22.8375 26.6L29.75 33.5562ZM12.6875 36.75H5.25V29.3125L12.9062 21.6562L3.5 12.25L12.25 3.5L21.7 12.95L28.3062 6.3C28.6562 5.95 29.05 5.6875 29.4875 5.5125C29.925 5.3375 30.3771 5.25 30.8438 5.25C31.3104 5.25 31.7625 5.3375 32.2 5.5125C32.6375 5.6875 33.0312 5.95 33.3813 6.3L35.7 8.6625C36.05 9.0125 36.3125 9.40625 36.4875 9.84375C36.6625 10.2812 36.75 10.7333 36.75 11.2C36.75 11.6667 36.6625 12.1115 36.4875 12.5344C36.3125 12.9573 36.05 13.3438 35.7 13.6937L29.0938 20.3438L38.5 29.75L29.75 38.5L20.3438 29.0938L12.6875 36.75ZM8.75 33.25H11.2L28.35 16.1438L25.8562 13.65L8.75 30.8V33.25ZM27.125 14.9187L25.8562 13.65L28.35 16.1438L27.125 14.9187Z" fill="black"/>
</g>
</svg>
